<svg xmlns="http://www.w3.org/2000/svg" viewBox="0 0 240 60" role="img" aria-labelledby="logoTitle">
  <title id="logoTitle">Aura Cafe Logo</title>
  <defs>
    <linearGradient id="cupGrad" x1="0%" y1="0%" x2="100%" y2="100%">
      <stop offset="0%" stop-color="#1f2937"/>
      <stop offset="100%" stop-color="#111827"/>
    </linearGradient>
  </defs>
  <g transform="translate(10,10)">
    <path d="M0 24h40a4 4 0 0 0 4-4v-8a10 10 0 0 0-10-10H10a10 10 0 0 0-10 10v8a4 4 0 0 0 4 4Z" fill="url(#cupGrad)"/>
    <path d="M36 20c0 6.627-5.373 12-12 12H4" fill="none" stroke="#fff" stroke-width="4" stroke-linecap="round"/>
    <path d="M40 10c4.418 0 8-3.582 8-8" fill="none" stroke="#111827" stroke-width="4"/>
    <path d="M14 0c4 4 4 10 0 14" fill="none" stroke="#111827" stroke-width="4"/>
    <path d="M26 0c4 4 4 10 0 14" fill="none" stroke="#111827" stroke-width="4"/>
    <path d="M38 0c4 4 4 10 0 14" fill="none" stroke="#111827" stroke-width="4"/>
    <path d="M44 11h10" stroke="#111827" stroke-width="4" stroke-linecap="round"/>
  </g>
  <text x="70" y="37" font-family="Inter, Arial, sans-serif" font-size="30" font-weight="700" fill="#111827">AURA</text>
</svg>
